<svg width="108" height="16" viewBox="0 0 108 16" fill="none" xmlns="http://www.w3.org/2000/svg">
<path d="M5.2698 8.03266L102.278 8.17057" stroke="#CACACA" stroke-width="0.836813" stroke-linecap="square" stroke-dasharray="1.67 4.18"/>
<path d="M51.1151 15.6044H52.7679L56.8998 9.24466L61.445 9.24466C62.1309 9.24466 62.6846 8.71204 62.6846 8.0522C62.6846 7.39237 62.1309 6.85975 61.445 6.85975L56.8998 6.85975L52.7679 0.5L51.1151 0.5L53.181 6.85978L48.6359 6.85978L47.3963 5.26983H46.1567L46.9831 8.05224L46.1567 10.8346H47.3963L48.6359 9.24466H53.1811L51.1151 15.6044Z" fill="#1262AE"/>
<circle cx="5.36621" cy="8" r="3.66319" fill="white" stroke="#1262AE" stroke-width="1.67363"/>
<path d="M107.138 8.68406C107.138 10.5024 105.597 12.0313 103.626 12.0313C101.655 12.0313 100.113 10.5024 100.113 8.68406C100.113 6.8657 101.655 5.33681 103.626 5.33681C105.597 5.33681 107.138 6.8657 107.138 8.68406Z" fill="white" stroke="#1262AE" stroke-width="1.67363"/>
</svg>
