<svg width="130" height="31" viewBox="0 0 130 31" fill="none" xmlns="http://www.w3.org/2000/svg">
<g clip-path="url(#clip0_1003_4180)">
<path d="M14.9996 1.58789C7.04661 1.58789 0.599609 8.03489 0.599609 15.9879C0.599609 23.9409 7.04661 30.3879 14.9996 30.3879C22.9526 30.3879 29.3996 23.9409 29.3996 15.9879C29.3996 8.03489 22.9526 1.58789 14.9996 1.58789ZM18.4106 11.5389H16.2461C15.9896 11.5389 15.7046 11.8764 15.7046 12.3249V13.8879H18.4121L18.0026 16.1169H15.7046V22.8084H13.1501V16.1169H10.8326V13.8879H13.1501V12.5769C13.1501 10.6959 14.4551 9.16739 16.2461 9.16739H18.4106V11.5389Z" fill="white"/>
</g>
<g clip-path="url(#clip1_1003_4180)">
<path d="M115 1.58789C107.047 1.58789 100.6 8.03489 100.6 15.9879C100.6 23.9409 107.047 30.3879 115 30.3879C122.953 30.3879 129.4 23.9409 129.4 15.9879C129.4 8.03489 122.953 1.58789 115 1.58789ZM120.857 13.3839C120.863 13.5069 120.865 13.6299 120.865 13.7499C120.865 17.4999 118.013 21.8214 112.796 21.8214C111.255 21.824 109.745 21.3812 108.449 20.5464C108.67 20.5734 108.896 20.5839 109.126 20.5839C110.455 20.5839 111.677 20.1324 112.648 19.3704C112.056 19.3588 111.483 19.1629 111.008 18.8102C110.533 18.4574 110.18 17.9653 109.999 17.4024C110.423 17.4832 110.861 17.4662 111.278 17.3529C110.636 17.2231 110.059 16.8753 109.644 16.3684C109.229 15.8615 109.003 15.2268 109.003 14.5719V14.5374C109.385 14.7489 109.823 14.8779 110.288 14.8929C109.686 14.4923 109.26 13.8769 109.097 13.1726C108.934 12.4683 109.046 11.7283 109.411 11.1039C110.123 11.9799 111.012 12.6965 112.018 13.2074C113.025 13.7182 114.128 14.0119 115.256 14.0694C115.113 13.4609 115.174 12.822 115.432 12.2521C115.689 11.6823 116.127 11.2134 116.678 10.9183C117.229 10.6232 117.863 10.5185 118.479 10.6204C119.096 10.7223 119.662 11.0252 120.089 11.4819C120.724 11.3563 121.333 11.1235 121.889 10.7934C121.678 11.4506 121.235 12.0087 120.643 12.3639C121.205 12.2962 121.754 12.145 122.272 11.9154C121.891 12.4852 121.412 12.9825 120.857 13.3839Z" fill="white"/>
</g>
<g clip-path="url(#clip2_1003_4180)">
<path d="M69.4996 15.9879C69.4996 17.1814 69.0255 18.326 68.1816 19.1699C67.3377 20.0138 66.1931 20.4879 64.9996 20.4879C63.8061 20.4879 62.6615 20.0138 61.8176 19.1699C60.9737 18.326 60.4996 17.1814 60.4996 15.9879C60.4996 15.7314 60.5266 15.4809 60.5731 15.2379H58.9996V21.2334C58.9996 21.6504 59.3371 21.9879 59.7541 21.9879H70.2466C70.4465 21.9875 70.638 21.9078 70.7792 21.7664C70.9203 21.6249 70.9996 21.4332 70.9996 21.2334V15.2379H69.4261C69.4726 15.4809 69.4996 15.7314 69.4996 15.9879ZM64.9996 18.9879C65.3937 18.9878 65.7839 18.9101 66.1479 18.7592C66.5119 18.6083 66.8427 18.3872 67.1212 18.1085C67.3998 17.8297 67.6208 17.4989 67.7715 17.1348C67.9222 16.7707 67.9997 16.3805 67.9996 15.9864C67.9995 15.5923 67.9218 15.2021 67.7709 14.8381C67.62 14.4741 67.3989 14.1433 67.1202 13.8648C66.8415 13.5862 66.5106 13.3652 66.1465 13.2145C65.7824 13.0638 65.3922 12.9863 64.9981 12.9864C64.2023 12.9866 63.4391 13.3029 62.8765 13.8658C62.3139 14.4287 61.9979 15.192 61.9981 15.9879C61.9983 16.7837 62.3147 17.5469 62.8775 18.1095C63.4404 18.6721 64.2038 18.9881 64.9996 18.9879ZM68.5996 12.8379H70.3981C70.5176 12.8379 70.6322 12.7905 70.7168 12.7062C70.8015 12.6218 70.8492 12.5074 70.8496 12.3879V10.5894C70.8496 10.4696 70.802 10.3548 70.7174 10.2701C70.6327 10.1855 70.5179 10.1379 70.3981 10.1379H68.5996C68.4799 10.1379 68.365 10.1855 68.2804 10.2701C68.1957 10.3548 68.1481 10.4696 68.1481 10.5894V12.3879C68.1496 12.6354 68.3521 12.8379 68.5996 12.8379ZM64.9996 1.58789C61.1805 1.58789 57.5178 3.10503 54.8173 5.80555C52.1167 8.50608 50.5996 12.1688 50.5996 15.9879C50.5996 19.807 52.1167 23.4697 54.8173 26.1702C57.5178 28.8708 61.1805 30.3879 64.9996 30.3879C66.8906 30.3879 68.7632 30.0154 70.5103 29.2918C72.2573 28.5681 73.8448 27.5074 75.182 26.1702C76.5191 24.8331 77.5798 23.2456 78.3035 21.4985C79.0271 19.7514 79.3996 17.8789 79.3996 15.9879C79.3996 14.0969 79.0271 12.2243 78.3035 10.4772C77.5798 8.73016 76.5191 7.14272 75.182 5.80555C73.8448 4.46839 72.2573 3.40769 70.5103 2.68403C68.7632 1.96036 66.8906 1.58789 64.9996 1.58789ZM72.4996 21.8214C72.4996 22.7379 71.7496 23.4879 70.8331 23.4879H59.1661C58.2496 23.4879 57.4996 22.7379 57.4996 21.8214V10.1544C57.4996 9.23789 58.2496 8.48789 59.1661 8.48789H70.8331C71.7496 8.48789 72.4996 9.23789 72.4996 10.1544V21.8214Z" fill="white"/>
</g>
<defs>
<clipPath id="clip0_1003_4180">
<rect width="30" height="30" fill="white" transform="translate(0 0.987793)"/>
</clipPath>
<clipPath id="clip1_1003_4180">
<rect width="30" height="30" fill="white" transform="translate(100 0.987793)"/>
</clipPath>
<clipPath id="clip2_1003_4180">
<rect width="30" height="30" fill="white" transform="translate(50 0.987793)"/>
</clipPath>
</defs>
</svg>
