<svg width="130" height="30" viewBox="0 0 130 30" fill="none" xmlns="http://www.w3.org/2000/svg">
<path d="M14.9996 0.600098C7.04661 0.600098 0.599609 7.0471 0.599609 15.0001C0.599609 22.9531 7.04661 29.4001 14.9996 29.4001C22.9526 29.4001 29.3996 22.9531 29.3996 15.0001C29.3996 7.0471 22.9526 0.600098 14.9996 0.600098ZM18.4106 10.5511H16.2461C15.9896 10.5511 15.7046 10.8886 15.7046 11.3371V12.9001H18.4121L18.0026 15.1291H15.7046V21.8206H13.1501V15.1291H10.8326V12.9001H13.1501V11.5891C13.1501 9.7081 14.4551 8.1796 16.2461 8.1796H18.4106V10.5511Z" fill="white"/>
<path d="M115 0.600098C107.047 0.600098 100.6 7.0471 100.6 15.0001C100.6 22.9531 107.047 29.4001 115 29.4001C122.953 29.4001 129.4 22.9531 129.4 15.0001C129.4 7.0471 122.953 0.600098 115 0.600098ZM120.857 12.3961C120.863 12.5191 120.865 12.6421 120.865 12.7621C120.865 16.5121 118.013 20.8336 112.796 20.8336C111.255 20.8362 109.745 20.3934 108.449 19.5586C108.67 19.5856 108.896 19.5961 109.126 19.5961C110.455 19.5961 111.677 19.1446 112.648 18.3826C112.056 18.371 111.483 18.1751 111.008 17.8224C110.533 17.4696 110.18 16.9775 109.999 16.4146C110.423 16.4954 110.861 16.4784 111.278 16.3651C110.636 16.2353 110.059 15.8875 109.644 15.3806C109.229 14.8737 109.003 14.239 109.003 13.5841V13.5496C109.385 13.7611 109.823 13.8901 110.288 13.9051C109.686 13.5045 109.26 12.8891 109.097 12.1848C108.934 11.4805 109.046 10.7405 109.411 10.1161C110.123 10.9921 111.012 11.7087 112.018 12.2196C113.025 12.7304 114.128 13.0241 115.256 13.0816C115.113 12.4731 115.174 11.8342 115.432 11.2644C115.689 10.6945 116.127 10.2256 116.678 9.93049C117.229 9.6354 117.863 9.53068 118.479 9.63261C119.096 9.73453 119.662 10.0374 120.089 10.4941C120.724 10.3685 121.333 10.1357 121.889 9.8056C121.678 10.4628 121.235 11.0209 120.643 11.3761C121.205 11.3084 121.754 11.1572 122.272 10.9276C121.891 11.4974 121.412 11.9948 120.857 12.3961Z" fill="white"/>
<path d="M69.4996 15.0001C69.4996 16.1936 69.0255 17.3382 68.1816 18.1821C67.3377 19.026 66.1931 19.5001 64.9996 19.5001C63.8061 19.5001 62.6615 19.026 61.8176 18.1821C60.9737 17.3382 60.4996 16.1936 60.4996 15.0001C60.4996 14.7436 60.5266 14.4931 60.5731 14.2501H58.9996V20.2456C58.9996 20.6626 59.3371 21.0001 59.7541 21.0001H70.2466C70.4465 20.9997 70.638 20.92 70.7792 20.7786C70.9203 20.6371 70.9996 20.4454 70.9996 20.2456V14.2501H69.4261C69.4726 14.4931 69.4996 14.7436 69.4996 15.0001ZM64.9996 18.0001C65.3937 18 65.7839 17.9223 66.1479 17.7714C66.5119 17.6205 66.8427 17.3994 67.1212 17.1207C67.3998 16.842 67.6208 16.5111 67.7715 16.147C67.9222 15.7829 67.9997 15.3927 67.9996 14.9986C67.9995 14.6045 67.9218 14.2143 67.7709 13.8503C67.62 13.4863 67.3989 13.1555 67.1202 12.877C66.8415 12.5984 66.5106 12.3774 66.1465 12.2267C65.7824 12.076 65.3922 11.9985 64.9981 11.9986C64.2023 11.9988 63.4391 12.3151 62.8765 12.878C62.3139 13.4409 61.9979 14.2043 61.9981 15.0001C61.9983 15.7959 62.3147 16.5591 62.8775 17.1217C63.4404 17.6843 64.2038 18.0003 64.9996 18.0001ZM68.5996 11.8501H70.3981C70.5176 11.8501 70.6322 11.8027 70.7168 11.7184C70.8015 11.634 70.8492 11.5196 70.8496 11.4001V9.6016C70.8496 9.48185 70.802 9.36701 70.7174 9.28234C70.6327 9.19767 70.5179 9.1501 70.3981 9.1501H68.5996C68.4799 9.1501 68.365 9.19767 68.2804 9.28234C68.1957 9.36701 68.1481 9.48185 68.1481 9.6016V11.4001C68.1496 11.6476 68.3521 11.8501 68.5996 11.8501ZM64.9996 0.600098C61.1805 0.600098 57.5178 2.11724 54.8173 4.81776C52.1167 7.51828 50.5996 11.181 50.5996 15.0001C50.5996 18.8192 52.1167 22.4819 54.8173 25.1824C57.5178 27.883 61.1805 29.4001 64.9996 29.4001C66.8906 29.4001 68.7632 29.0276 70.5103 28.304C72.2573 27.5803 73.8448 26.5196 75.182 25.1824C76.5191 23.8453 77.5798 22.2578 78.3035 20.5107C79.0271 18.7637 79.3996 16.8911 79.3996 15.0001C79.3996 13.1091 79.0271 11.2365 78.3035 9.48946C77.5798 7.74237 76.5191 6.15492 75.182 4.81776C73.8448 3.4806 72.2573 2.4199 70.5103 1.69623C68.7632 0.972565 66.8906 0.600098 64.9996 0.600098ZM72.4996 20.8336C72.4996 21.7501 71.7496 22.5001 70.8331 22.5001H59.1661C58.2496 22.5001 57.4996 21.7501 57.4996 20.8336V9.1666C57.4996 8.2501 58.2496 7.5001 59.1661 7.5001H70.8331C71.7496 7.5001 72.4996 8.2501 72.4996 9.1666V20.8336Z" fill="white"/>
</svg>
