<svg width="17" height="19" viewBox="0 0 17 19" fill="none" xmlns="http://www.w3.org/2000/svg">
<path d="M16.1368 7.04056L11.1377 6.25634L8.903 1.3661C8.84197 1.23221 8.74155 1.12382 8.61751 1.05793C8.30642 0.892164 7.92839 1.03031 7.77285 1.3661L5.53813 6.25634L0.539058 7.04056C0.401234 7.06181 0.275223 7.13195 0.178747 7.23821C0.0621115 7.36761 -0.00215972 7.5417 5.54169e-05 7.72222C0.00227055 7.90274 0.0707908 8.07493 0.19056 8.20095L3.80745 12.0073L2.95295 17.3821C2.93291 17.5071 2.94572 17.6357 2.98995 17.7533C3.03417 17.8709 3.10802 17.9727 3.20313 18.0473C3.29825 18.1218 3.41081 18.1661 3.52806 18.1752C3.64532 18.1842 3.76257 18.1576 3.86652 18.0983L8.33792 15.5608L12.8093 18.0983C12.9314 18.1685 13.0732 18.1918 13.209 18.1663C13.5516 18.1026 13.782 17.7519 13.7229 17.3821L12.8684 12.0073L16.4853 8.20095C16.5837 8.09682 16.6487 7.9608 16.6684 7.81203C16.7216 7.44011 16.4813 7.09582 16.1368 7.04056Z" fill="#FDBF00"/>
</svg>
