<svg width="25" height="24" viewBox="0 0 25 24" fill="none" xmlns="http://www.w3.org/2000/svg">
<g clip-path="url(#clip0_1003_25187)">
<path d="M12.8727 21.8913C10.2494 21.8913 7.73348 20.8492 5.8785 18.9942C4.02352 17.1392 2.9814 14.6234 2.9814 12C2.9814 9.37669 4.02352 6.86079 5.8785 5.00582C7.73348 3.15084 10.2494 2.10872 12.8727 2.10872C15.496 2.10872 18.0119 3.15084 19.8669 5.00582C21.7219 6.86079 22.764 9.37669 22.764 12C22.764 14.6234 21.7219 17.1392 19.8669 18.9942C18.0119 20.8492 15.496 21.8913 12.8727 21.8913ZM12.8727 23.3044C15.8708 23.3044 18.7461 22.1134 20.8661 19.9934C22.9861 17.8734 24.177 14.9981 24.177 12C24.177 9.00192 22.9861 6.12662 20.8661 4.00664C18.7461 1.88667 15.8708 0.695679 12.8727 0.695679C9.8746 0.695679 6.9993 1.88667 4.87932 4.00664C2.75935 6.12662 1.56836 9.00192 1.56836 12C1.56836 14.9981 2.75935 17.8734 4.87932 19.9934C6.9993 22.1134 9.8746 23.3044 12.8727 23.3044Z" fill="#1262AF"/>
<path d="M10.3489 7.19992C10.4822 7.13127 10.6319 7.10074 10.7814 7.11166C10.931 7.12259 11.0746 7.17456 11.1965 7.26185L16.9012 11.3366C17.0068 11.412 17.0929 11.5115 17.1523 11.6269C17.2117 11.7423 17.2427 11.8702 17.2427 12C17.2427 12.1298 17.2117 12.2577 17.1523 12.3731C17.0929 12.4885 17.0068 12.588 16.9012 12.6634L11.1965 16.7381C11.0746 16.8254 10.9311 16.8773 10.7816 16.8882C10.6322 16.8991 10.4826 16.8686 10.3493 16.8001C10.2161 16.7315 10.1043 16.6275 10.0263 16.4996C9.94831 16.3716 9.90711 16.2246 9.90723 16.0748V7.92522C9.90707 7.77541 9.94821 7.62845 10.0261 7.50049C10.1041 7.37253 10.2158 7.26853 10.3489 7.19992Z" fill="#1262AF"/>
</g>
<defs>
<clipPath id="clip0_1003_25187">
<rect width="24" height="24" fill="white" transform="translate(0.873047)"/>
</clipPath>
</defs>
</svg>
