<svg width="25" height="25" viewBox="0 0 25 25" fill="none" xmlns="http://www.w3.org/2000/svg">
<g clip-path="url(#clip0_1003_25239)">
<path d="M12.8727 22.6186C10.2494 22.6186 7.73348 21.5765 5.8785 19.7215C4.02352 17.8665 2.9814 15.3507 2.9814 12.7273C2.9814 10.104 4.02352 7.58809 5.8785 5.73311C7.73348 3.87813 10.2494 2.83602 12.8727 2.83602C15.496 2.83602 18.0119 3.87813 19.8669 5.73311C21.7219 7.58809 22.764 10.104 22.764 12.7273C22.764 15.3507 21.7219 17.8665 19.8669 19.7215C18.0119 21.5765 15.496 22.6186 12.8727 22.6186ZM12.8727 24.0317C15.8708 24.0317 18.7461 22.8407 20.8661 20.7207C22.9861 18.6007 24.177 15.7254 24.177 12.7273C24.177 9.72922 22.9861 6.85391 20.8661 4.73394C18.7461 2.61396 15.8708 1.42297 12.8727 1.42297C9.8746 1.42297 6.9993 2.61396 4.87932 4.73394C2.75935 6.85391 1.56836 9.72922 1.56836 12.7273C1.56836 15.7254 2.75935 18.6007 4.87932 20.7207C6.9993 22.8407 9.8746 24.0317 12.8727 24.0317Z" fill="#1262AF"/>
<path d="M10.3489 7.92721C10.4822 7.85857 10.6319 7.82803 10.7814 7.83896C10.931 7.84989 11.0746 7.90186 11.1965 7.98915L16.9012 12.0639C17.0068 12.1393 17.0929 12.2388 17.1523 12.3542C17.2117 12.4696 17.2427 12.5975 17.2427 12.7273C17.2427 12.8571 17.2117 12.985 17.1523 13.1004C17.0929 13.2157 17.0068 13.3153 16.9012 13.3907L11.1965 17.4654C11.0746 17.5526 10.9311 17.6046 10.7816 17.6155C10.6322 17.6264 10.4826 17.5959 10.3493 17.5274C10.2161 17.4588 10.1043 17.3548 10.0263 17.2269C9.94831 17.0989 9.90711 16.9519 9.90723 16.8021V8.65252C9.90707 8.5027 9.94821 8.35574 10.0261 8.22778C10.1041 8.09983 10.2158 7.99583 10.3489 7.92721Z" fill="#1262AF"/>
</g>
<defs>
<clipPath id="clip0_1003_25239">
<rect width="24" height="24" fill="white" transform="translate(0.873047 0.727295)"/>
</clipPath>
</defs>
</svg>
