<svg width="78" height="78" viewBox="0 0 78 78" fill="none" xmlns="http://www.w3.org/2000/svg">
<circle cx="39" cy="39" r="39" fill="url(#paint0_linear_1_1262)"/>
<path d="M20.2188 45.5312L29.8919 35.8581C31.5394 34.2106 34.2106 34.2106 35.8581 35.8581L45.5312 45.5312M42.7188 42.7188L45.3606 40.0769C47.0082 38.4293 49.6793 38.4293 51.3269 40.0769L56.7812 45.5312M23.0312 52.5625H53.9688C55.5221 52.5625 56.7812 51.3033 56.7812 49.75V27.25C56.7812 25.6967 55.5221 24.4375 53.9688 24.4375H23.0312C21.4779 24.4375 20.2188 25.6967 20.2188 27.25V49.75C20.2188 51.3033 21.4779 52.5625 23.0312 52.5625ZM42.7188 31.4688H42.7328V31.4828H42.7188V31.4688ZM43.4219 31.4688C43.4219 31.8571 43.1071 32.1719 42.7188 32.1719C42.3304 32.1719 42.0156 31.8571 42.0156 31.4688C42.0156 31.0804 42.3304 30.7656 42.7188 30.7656C43.1071 30.7656 43.4219 31.0804 43.4219 31.4688Z" stroke="white" stroke-width="2" stroke-linecap="round" stroke-linejoin="round"/>
<defs>
<linearGradient id="paint0_linear_1_1262" x1="-6.07186" y1="-30.5882" x2="171.205" y2="-11.5153" gradientUnits="userSpaceOnUse">
<stop stop-color="#3A8EF6"/>
<stop offset="1" stop-color="#6F3AFA"/>
</linearGradient>
</defs>
</svg>
