<svg width="84" height="72" viewBox="0 0 84 72" fill="none" xmlns="http://www.w3.org/2000/svg">
<path fill-rule="evenodd" clip-rule="evenodd" d="M0 3.40993C0 1.78019 1.7114 0.717143 3.17243 1.43947L27.3079 13.3719V67.9124C27.3079 70.38 24.6967 71.9733 22.5023 70.8445L1.19263 59.8825C0.460302 59.5058 0 58.7513 0 57.9277V3.40993Z" fill="url(#paint0_linear_1_1416)"/>
<path fill-rule="evenodd" clip-rule="evenodd" d="M27.2981 13.377L55.2322 59.4222L27.2981 45.322V13.377Z" fill="url(#paint1_linear_1_1416)"/>
<path fill-rule="evenodd" clip-rule="evenodd" d="M54.6258 1.02674C55.2338 0.061509 56.4793 -0.278113 57.4933 0.244837L83.5162 13.6666L55.202 59.3966L36.8848 29.1885L54.6258 1.02674Z" fill="url(#paint2_linear_1_1416)"/>
<path fill-rule="evenodd" clip-rule="evenodd" d="M55.2092 59.3951L83.5118 13.6582L83.6841 64.9216C83.6978 69.0335 79.3564 71.7034 75.6929 69.8361L55.2092 59.3951Z" fill="url(#paint3_linear_1_1416)"/>
<defs>
<linearGradient id="paint0_linear_1_1416" x1="-2.12577" y1="-26.244" x2="60.547" y2="-23.6137" gradientUnits="userSpaceOnUse">
<stop stop-color="#3A8EF6"/>
<stop offset="1" stop-color="#6F3AFA"/>
</linearGradient>
<linearGradient id="paint1_linear_1_1416" x1="34.2816" y1="8.26082" x2="84.202" y2="51.6421" gradientUnits="userSpaceOnUse">
<stop stop-color="#3D93FF"/>
<stop offset="1" stop-color="#65A8FB"/>
</linearGradient>
<linearGradient id="paint2_linear_1_1416" x1="33.2548" y1="-23.2928" x2="139.705" y2="-14.3013" gradientUnits="userSpaceOnUse">
<stop stop-color="#3A8EF6"/>
<stop offset="1" stop-color="#6F3AFA"/>
</linearGradient>
<linearGradient id="paint3_linear_1_1416" x1="62.3279" y1="7.34881" x2="121.245" y2="49.6688" gradientUnits="userSpaceOnUse">
<stop stop-color="#65A8FB"/>
<stop offset="1" stop-color="#65A8FB"/>
</linearGradient>
</defs>
</svg>
