<svg width="25" height="25" viewBox="0 0 25 25" fill="none" xmlns="http://www.w3.org/2000/svg">
<path d="M17.8135 10.0815H7.81661C6.43633 10.0815 5.31738 11.2005 5.31738 12.5808V20.0785C5.31738 21.4587 6.43633 22.5777 7.81661 22.5777H17.8135C19.1938 22.5777 20.3128 21.4587 20.3128 20.0785V12.5808C20.3128 11.2005 19.1938 10.0815 17.8135 10.0815Z" stroke="#211F54" stroke-width="1.67948" stroke-linecap="round" stroke-linejoin="round"/>
<path d="M12.8149 2.58386C11.4892 2.58386 10.2178 3.11048 9.28042 4.04788C8.34303 4.98527 7.81641 6.25665 7.81641 7.58232V10.0816H17.8133V7.58232C17.8133 6.25665 17.2867 4.98527 16.3493 4.04788C15.4119 3.11048 14.1405 2.58386 12.8149 2.58386V2.58386Z" stroke="#211F54" stroke-width="1.67948" stroke-linecap="round" stroke-linejoin="round"/>
</svg>
