<svg width="25" height="25" viewBox="0 0 25 25" fill="none" xmlns="http://www.w3.org/2000/svg">
<g clip-path="url(#clip0_44_196)">
<path d="M14.8855 20.9758L14.8964 20.9834C15.8406 21.5846 16.9616 21.8457 18.0742 21.7235C19.1868 21.6013 20.2244 21.1032 21.0156 20.3114L21.703 19.6241C21.8553 19.4719 21.9761 19.2911 22.0585 19.0922C22.141 18.8933 22.1834 18.6801 22.1834 18.4647C22.1834 18.2494 22.141 18.0362 22.0585 17.8372C21.9761 17.6383 21.8553 17.4576 21.703 17.3053L18.804 14.4085C18.6518 14.2562 18.471 14.1354 18.2721 14.053C18.0732 13.9705 17.8599 13.9281 17.6446 13.9281C17.4293 13.9281 17.216 13.9705 17.0171 14.053C16.8182 14.1354 16.6374 14.2562 16.4852 14.4085C16.1778 14.7158 15.761 14.8884 15.3264 14.8884C14.8918 14.8884 14.4749 14.7158 14.1676 14.4085L9.53225 9.77214C9.22497 9.46477 9.05235 9.04794 9.05235 8.61331C9.05235 8.17869 9.22497 7.76186 9.53225 7.45448C9.68456 7.30227 9.80539 7.12153 9.88783 6.9226C9.97026 6.72367 10.0127 6.51044 10.0127 6.29511C10.0127 6.07977 9.97026 5.86655 9.88783 5.66762C9.80539 5.46869 9.68456 5.28795 9.53225 5.13573L6.63436 2.23893C6.32698 1.93165 5.91015 1.75903 5.47553 1.75903C5.0409 1.75903 4.62407 1.93165 4.3167 2.23893L3.62829 2.92625C2.83671 3.71758 2.33879 4.75528 2.2168 5.86789C2.09481 6.9805 2.35605 8.10144 2.95736 9.04548L2.96391 9.05641C6.13955 13.7549 10.1864 17.801 14.8855 20.9758V20.9758Z" stroke="#1678F2" stroke-width="1.67948" stroke-linecap="round" stroke-linejoin="round"/>
</g>
<defs>
<clipPath id="clip0_44_196">
<rect width="23.9926" height="23.9926" fill="white" transform="translate(0.188477 0.120117)"/>
</clipPath>
</defs>
</svg>
