<svg width="25" height="25" viewBox="0 0 25 25" fill="none" xmlns="http://www.w3.org/2000/svg">
<path d="M22.1813 7.87305V17.87C22.1813 18.5328 21.918 19.1685 21.4493 19.6372C20.9806 20.1059 20.3449 20.3692 19.6821 20.3692H4.68673C4.02389 20.3692 3.3882 20.1059 2.91951 19.6372C2.45081 19.1685 2.1875 18.5328 2.1875 17.87V7.87305" stroke="#1678F2" stroke-width="1.67948" stroke-linecap="round" stroke-linejoin="round"/>
<path d="M22.1813 7.87313C22.1813 7.21029 21.918 6.57461 21.4493 6.10591C20.9806 5.63721 20.3449 5.3739 19.6821 5.3739H4.68673C4.02389 5.3739 3.3882 5.63721 2.91951 6.10591C2.45081 6.57461 2.1875 7.21029 2.1875 7.87313L10.8598 13.2881C11.257 13.5364 11.716 13.668 12.1844 13.668C12.6528 13.668 13.1118 13.5364 13.509 13.2881L22.1813 7.87313Z" stroke="#1678F2" stroke-width="1.67948" stroke-linecap="round" stroke-linejoin="round"/>
</svg>
