<svg width="23" height="21" viewBox="0 0 23 21" fill="none" xmlns="http://www.w3.org/2000/svg">
<path d="M0.73999 2.8044C0.73999 2.11196 0.983166 1.54071 1.4695 1.09064C1.95582 0.640559 2.58808 0.415527 3.36621 0.415527C4.13046 0.415527 4.74879 0.63709 5.22124 1.08026C5.70756 1.53726 5.95074 2.13273 5.95074 2.86672C5.95074 3.53145 5.71453 4.08538 5.24208 4.52854C4.75575 4.98555 4.11656 5.21405 3.32452 5.21405H3.30368C2.53943 5.21405 1.9211 4.98555 1.44865 4.52854C0.976204 4.07154 0.73999 3.49682 0.73999 2.8044ZM1.01095 20.9806V7.10437H5.6381V20.9806H1.01095ZM8.20178 20.9806H12.8289V13.2324C12.8289 12.7476 12.8845 12.3737 12.9957 12.1106C13.1902 11.6398 13.4855 11.2416 13.8815 10.9162C14.2775 10.5907 14.7743 10.428 15.3718 10.428C16.9281 10.428 17.7062 11.4736 17.7062 13.5647V20.9806H22.3333V13.0246C22.3333 10.975 21.847 9.42054 20.8743 8.36113C19.9016 7.30171 18.6163 6.77201 17.0184 6.77201C15.2259 6.77201 13.8294 7.5406 12.8289 9.07779V9.11934H12.8081L12.8289 9.07779V7.10437H8.20178C8.22957 7.54752 8.24347 8.92544 8.24347 11.2382C8.24347 13.5509 8.22957 16.7983 8.20178 20.9806Z" fill="#1678F2"/>
</svg>
