<svg width="61" height="61" viewBox="0 0 61 61" fill="none" xmlns="http://www.w3.org/2000/svg">
<g clip-path="url(#clip0_1_1197)">
<path d="M31.2627 57.4418C31.0085 57.4418 30.7543 57.4418 30.5002 57.4418C29.9918 57.4418 29.7377 57.1877 29.2293 56.6793L12.9627 39.9043C11.946 38.8877 11.946 37.3627 12.9627 36.346C13.9793 35.3293 15.5043 35.3293 16.521 36.346L31.0085 51.3418L50.5793 31.2627C52.1043 29.7377 53.121 27.9585 53.6293 26.1793C55.1543 21.3502 53.8835 16.521 50.5793 12.9627C49.0543 11.1835 46.7668 10.1668 44.2252 10.1668C40.6668 10.1668 36.6002 12.2002 33.0418 15.7585C32.5335 16.2668 32.0252 16.521 31.2627 16.521C30.5002 16.521 29.9918 16.2668 29.4835 15.7585C25.9252 12.2002 21.8585 10.1668 18.046 10.1668C15.5043 10.1668 13.471 11.1835 11.4377 12.9627C8.38766 16.0127 7.11682 20.5877 8.13349 25.1627C8.64182 26.6877 7.62516 27.9585 6.35432 28.2127C5.08349 28.4668 3.55849 27.7043 3.30432 26.4335C1.77932 20.3335 3.55849 13.9793 8.13349 9.40433C10.9293 6.6085 14.2335 5.0835 18.046 5.0835C22.3668 5.0835 26.9418 7.11683 31.0085 10.6752C35.3293 7.11683 39.9043 5.0835 44.2252 5.0835C48.0377 5.0835 51.596 6.6085 54.3918 9.40433C59.221 14.2335 60.746 21.096 58.7127 27.7043C57.9502 30.246 56.4252 32.7877 54.3918 34.821L33.0418 56.6793C32.5335 57.1877 32.0252 57.4418 31.2627 57.4418Z" fill="#1678F2"/>
<path d="M30.7542 42.1919C29.4834 42.1919 28.7209 41.4294 28.2126 40.4127L25.1626 30.5002L24.4001 33.0419C24.1459 34.0586 23.1292 34.8211 21.8584 34.8211H5.08341C3.55841 34.8211 2.54175 33.8044 2.54175 32.2794C2.54175 30.7544 3.55841 29.7377 5.08341 29.7377H20.0792L22.3667 21.0961C22.8751 20.0794 23.8917 19.3169 24.9084 19.3169C25.9251 19.3169 26.9417 20.0794 27.4501 21.0961L31.0084 32.2794L34.3126 23.8919C34.8209 22.8752 35.5834 22.3669 36.6001 22.3669C37.6167 22.3669 38.6334 23.1294 38.8876 23.8919L41.1751 29.7377H44.7334C46.2584 29.7377 47.2751 30.7544 47.2751 32.2794C47.2751 33.8044 46.2584 34.8211 44.7334 34.8211H39.3959C38.3792 34.8211 37.3626 34.0586 37.1084 33.2961L36.6001 31.7711L33.0417 40.6669C32.7876 41.6836 31.7709 42.1919 30.7542 42.1919Z" fill="#1678F2"/>
</g>
<defs>
<clipPath id="clip0_1_1197">
<rect width="57.1875" height="52.3583" fill="white" transform="translate(2.54175 5.0835)"/>
</clipPath>
</defs>
</svg>
