<svg width="25" height="32" viewBox="0 0 25 32" fill="none" xmlns="http://www.w3.org/2000/svg">
<path d="M20.4153 18.0825C20.4153 24.5352 13.8064 28.5104 12.4329 29.2676C12.3568 29.3096 12.2713 29.3316 12.1845 29.3316C12.0976 29.3316 12.0121 29.3096 11.936 29.2676C10.5615 28.5104 3.95459 24.5352 3.95459 18.0825C3.95459 12.9386 7.04098 9.33777 12.185 9.33777C17.329 9.33777 20.4153 12.9386 20.4153 18.0825Z" stroke="#1678F2" stroke-width="1.67948" stroke-linecap="round" stroke-linejoin="round"/>
<path d="M8.07031 17.5682C8.07031 18.6596 8.50388 19.7063 9.27562 20.4781C10.0474 21.2498 11.0941 21.6834 12.1855 21.6834C13.2769 21.6834 14.3236 21.2498 15.0954 20.4781C15.8671 19.7063 16.3007 18.6596 16.3007 17.5682C16.3007 16.4768 15.8671 15.4301 15.0954 14.6583C14.3236 13.8866 13.2769 13.453 12.1855 13.453C11.0941 13.453 10.0474 13.8866 9.27562 14.6583C8.50388 15.4301 8.07031 16.4768 8.07031 17.5682V17.5682Z" stroke="#1678F2" stroke-width="1.67948" stroke-linecap="round" stroke-linejoin="round"/>
</svg>
