<svg width="22" height="18" viewBox="0 0 22 18" fill="none" xmlns="http://www.w3.org/2000/svg">
<path d="M14.7984 0.342512V0.338623H15.8109L16.1808 0.412511C16.4275 0.460479 16.6514 0.523342 16.8526 0.601118C17.0538 0.678895 17.2485 0.76964 17.4367 0.873336C17.6249 0.977031 17.7956 1.08269 17.9488 1.19027C18.1007 1.29658 18.237 1.40935 18.3577 1.5286C18.4771 1.64916 18.6634 1.68027 18.9165 1.62193C19.1696 1.5636 19.4422 1.48258 19.7343 1.37888C20.0263 1.27519 20.3152 1.15852 20.6007 1.02889C20.8863 0.899255 21.0603 0.816948 21.1226 0.781948C21.1836 0.745666 21.216 0.726222 21.2199 0.723616L21.2238 0.717783L21.2433 0.708061L21.2628 0.698339L21.2822 0.688617L21.3017 0.678895L21.3056 0.673062L21.3114 0.669173L21.3173 0.665284L21.3212 0.659451L21.3406 0.653617L21.3601 0.649729L21.3562 0.678895L21.3504 0.708061L21.3406 0.737227L21.3309 0.766393L21.3212 0.785837L21.3114 0.805281L21.3017 0.834448C21.2952 0.853892 21.2887 0.879811 21.2822 0.912224C21.2757 0.944637 21.2141 1.07425 21.0972 1.30111C20.9804 1.52796 20.8344 1.75804 20.6592 1.99137C20.4839 2.2247 20.3269 2.40098 20.188 2.52025C20.0478 2.6408 19.955 2.72506 19.9095 2.77302C19.8641 2.82228 19.8089 2.86764 19.744 2.90913L19.6467 2.9733L19.6272 2.98302L19.6077 2.99274L19.6038 2.99858L19.598 3.00246L19.5921 3.00635L19.5882 3.01219L19.5688 3.02191L19.5493 3.03163L19.5454 3.03746L19.5396 3.04135L19.5337 3.04524L19.5298 3.05107L19.526 3.05691L19.5201 3.0608L19.5143 3.06469L19.5104 3.07052H19.6077L20.1529 2.95385C20.5164 2.87608 20.8636 2.7821 21.1946 2.67191L21.7203 2.49692L21.7787 2.47747L21.8079 2.46775L21.8274 2.45803L21.8469 2.44831L21.8664 2.43859L21.8858 2.42886L21.9248 2.42303L21.9637 2.41914V2.45803L21.954 2.46192L21.9442 2.46775L21.9404 2.47359L21.9345 2.47747L21.9287 2.48136L21.9248 2.4872L21.9209 2.49303L21.915 2.49692L21.9092 2.50081L21.9053 2.50664L21.9014 2.51247L21.8956 2.51636L21.8858 2.53581L21.8761 2.55525L21.8702 2.55914C21.8677 2.56303 21.7852 2.6732 21.623 2.88969C21.4607 3.10746 21.3731 3.21763 21.3601 3.22024C21.3471 3.22413 21.329 3.24357 21.3056 3.27857C21.2835 3.31485 21.1459 3.4594 20.8928 3.71217C20.6397 3.96495 20.3918 4.18984 20.149 4.38688C19.905 4.58521 19.7817 4.82891 19.7791 5.11798C19.7752 5.40576 19.7603 5.73113 19.7343 6.09408C19.7083 6.45704 19.6596 6.84915 19.5882 7.27044C19.5169 7.69174 19.4065 8.16812 19.2572 8.69959C19.108 9.23105 18.9262 9.74957 18.7121 10.2551C18.4979 10.7607 18.274 11.2143 18.0403 11.6162C17.8067 12.0181 17.5925 12.3583 17.3978 12.637C17.203 12.9157 17.0051 13.1782 16.8039 13.4245C16.6027 13.6708 16.3483 13.9482 16.0406 14.2567C15.7317 14.5639 15.563 14.7324 15.5344 14.7623C15.5046 14.7908 15.3773 14.8971 15.1528 15.0811C14.9295 15.2665 14.6893 15.4519 14.4323 15.6372C14.1766 15.8213 13.9417 15.9749 13.7275 16.0981C13.5133 16.2212 13.255 16.3618 12.9525 16.52C12.6514 16.6794 12.3256 16.8272 11.9751 16.9633C11.6246 17.0994 11.2547 17.2258 10.8652 17.3425C10.4758 17.4592 10.0994 17.5499 9.73592 17.6147C9.37247 17.6795 8.96033 17.7346 8.49951 17.78L7.80829 17.848V17.8578H6.54267V17.848L6.37717 17.8383C6.26684 17.8318 6.17597 17.8253 6.10457 17.8189C6.03319 17.8124 5.76383 17.7767 5.29653 17.7119C4.82922 17.6471 4.46252 17.5823 4.19641 17.5175C3.93032 17.4527 3.5344 17.3295 3.00868 17.148C2.48297 16.9666 2.03319 16.7831 1.65934 16.5978C1.2868 16.4137 1.05315 16.297 0.958386 16.2478C0.864925 16.1998 0.759781 16.1402 0.642955 16.0689L0.467716 15.962L0.463842 15.9561L0.457981 15.9522L0.45214 15.9483L0.448245 15.9425L0.428774 15.9328L0.409303 15.9231L0.405429 15.9172L0.399568 15.9133L0.393727 15.9095L0.389832 15.9036L0.385958 15.8978L0.380097 15.8939H0.370361V15.855L0.389832 15.8589L0.409303 15.8647L0.496923 15.8745C0.555336 15.8809 0.714356 15.8907 0.973963 15.9036C1.23359 15.9166 1.50942 15.9166 1.80148 15.9036C2.09355 15.8907 2.39211 15.8615 2.69715 15.8161C3.0022 15.7708 3.36241 15.693 3.77779 15.5828C4.19318 15.4726 4.57481 15.3417 4.9227 15.19C5.26929 15.0371 5.51591 14.923 5.6626 14.8478C5.80797 14.7739 6.02994 14.6365 6.32849 14.4356L6.77632 14.1342L6.78022 14.1284L6.78606 14.1245L6.79192 14.1206L6.79579 14.1148L6.79969 14.1089L6.80553 14.105L6.81139 14.1012L6.81527 14.0953L6.83474 14.0895L6.85421 14.0856L6.8581 14.0662L6.86394 14.0467L6.8698 14.0428L6.87368 14.037L6.71791 14.0273C6.61407 14.0208 6.51346 14.0143 6.41611 14.0078C6.31875 14.0013 6.16624 13.9722 5.95854 13.9203C5.75086 13.8685 5.52695 13.7907 5.28679 13.687C5.04666 13.5833 4.813 13.4601 4.58583 13.3176C4.35869 13.175 4.19447 13.0563 4.09322 12.9617C3.99327 12.8684 3.86346 12.7362 3.7038 12.5651C3.54544 12.3927 3.40784 12.2157 3.29101 12.0342C3.17419 11.8528 3.06256 11.6434 2.95613 11.4062L2.7945 11.0523L2.78477 11.0232L2.77503 10.994L2.76919 10.9745L2.7653 10.9551L2.7945 10.959L2.82371 10.9648L3.03789 10.994C3.18069 11.0134 3.40461 11.0199 3.70964 11.0134C4.01469 11.007 4.22562 10.994 4.34245 10.9745C4.45927 10.9551 4.53067 10.9421 4.55663 10.9357L4.59557 10.9259L4.64425 10.9162L4.69292 10.9065L4.69682 10.9007L4.70266 10.8968L4.70852 10.8929L4.7124 10.887L4.67345 10.8773L4.63451 10.8676L4.59557 10.8579L4.55663 10.8482L4.51769 10.8384C4.49173 10.832 4.44631 10.819 4.38139 10.7995C4.31649 10.7801 4.14125 10.7088 3.85567 10.5857C3.57011 10.4625 3.34294 10.3426 3.17419 10.2259C3.00501 10.1089 2.84371 9.98099 2.69131 9.8429C2.53943 9.7029 2.37264 9.52271 2.1909 9.30235C2.00918 9.08199 1.84693 8.82597 1.70413 8.53431C1.56134 8.24265 1.45425 7.96396 1.38285 7.69821C1.31174 7.43404 1.26482 7.16395 1.24268 6.89128L1.20761 6.48296L1.22709 6.48685L1.24656 6.49268L1.26603 6.5024L1.2855 6.51212L1.30497 6.52185L1.32444 6.53157L1.62624 6.66768C1.82745 6.75842 2.07733 6.8362 2.37588 6.90101C2.67444 6.96581 2.85291 7.00147 2.91133 7.00795L2.99895 7.01767H3.17419L3.17031 7.01184L3.16445 7.00795L3.15861 7.00406L3.15472 6.99823L3.15084 6.99239L3.14498 6.9885L3.13914 6.98462L3.13524 6.97878L3.11577 6.96906L3.0963 6.95934L3.09243 6.95351L3.08657 6.94962L3.08073 6.94573L3.07683 6.93989L3.05736 6.93017L3.03789 6.92045L3.03401 6.91462C3.03012 6.91201 2.9743 6.87054 2.86654 6.79017C2.7601 6.70851 2.64847 6.60287 2.53164 6.47324C2.41482 6.3436 2.29799 6.20749 2.18117 6.06491C2.06412 5.922 1.95988 5.7691 1.86963 5.60797C1.77878 5.44595 1.68271 5.23982 1.58146 4.98965C1.48151 4.74077 1.40558 4.48994 1.35365 4.23716C1.30174 3.98439 1.27253 3.73487 1.26603 3.48857C1.25954 3.24227 1.26603 3.03163 1.2855 2.85663C1.30497 2.68164 1.34391 2.48395 1.40232 2.26359C1.46074 2.04323 1.54513 1.8099 1.65545 1.5636L1.82095 1.19416L1.83069 1.165L1.84042 1.13583L1.84628 1.13194L1.85016 1.12611L1.85405 1.12028L1.85989 1.11639L1.86575 1.12028L1.86963 1.12611L1.87352 1.13194L1.87936 1.13583L1.88523 1.13972L1.8891 1.14555L1.89299 1.15139L1.89884 1.15528L1.90857 1.17472L1.91831 1.19416L1.92417 1.19805L1.92804 1.20389L2.1909 1.49555C2.36614 1.68999 2.57384 1.90712 2.81397 2.14692C3.05413 2.38673 3.18717 2.51117 3.21313 2.52025C3.2391 2.53061 3.27154 2.56042 3.31048 2.60969C3.34943 2.65766 3.47924 2.77238 3.6999 2.95385C3.92059 3.13533 4.2094 3.34598 4.56636 3.58579C4.92335 3.82559 5.31925 4.06217 5.7541 4.2955C6.18896 4.52883 6.65626 4.73946 7.15601 4.92743C7.65577 5.1154 8.00625 5.23854 8.20744 5.29687C8.40866 5.3552 8.75263 5.42973 9.23941 5.52048C9.72618 5.61122 10.0929 5.66955 10.3395 5.69547C10.5862 5.72139 10.7549 5.7363 10.8458 5.74019L10.9821 5.74408L10.9782 5.71492L10.9723 5.68575L10.9334 5.4427C10.9074 5.28067 10.8944 5.05382 10.8944 4.76216C10.8944 4.47049 10.9172 4.20152 10.9626 3.95523C11.008 3.70893 11.0762 3.4594 11.167 3.20663C11.2579 2.95385 11.3468 2.75097 11.4338 2.59803C11.5221 2.44636 11.6376 2.27331 11.7804 2.07887C11.9232 1.88443 12.1081 1.68351 12.3353 1.4761C12.5625 1.26869 12.8221 1.08397 13.1141 0.921946C13.4062 0.759918 13.6756 0.636759 13.9222 0.552508C14.1688 0.468257 14.3765 0.413152 14.5453 0.387233C14.714 0.361314 14.7984 0.346401 14.7984 0.342512Z" fill="#1678F2"/>
</svg>
