<svg width="24" height="18" viewBox="0 0 24 18" fill="none" xmlns="http://www.w3.org/2000/svg">
<path d="M12.4475 17.4716L7.57436 17.3805C5.99655 17.3488 4.41481 17.4121 2.86794 17.0833C0.514783 16.5921 0.348077 14.1833 0.173638 12.1628C-0.0667227 9.32231 0.026328 6.43022 0.479919 3.6134C0.735986 2.03286 1.74371 1.08975 3.30213 0.98712C8.56293 0.614665 13.8587 0.658804 19.1079 0.832568C19.6622 0.848497 20.2204 0.935562 20.7671 1.03466C23.4654 1.51802 23.5312 4.24765 23.7061 6.54549C23.8806 8.86704 23.8069 11.2005 23.4735 13.5063C23.206 15.4153 22.6942 17.0163 20.5344 17.1709C17.8284 17.373 15.1844 17.5357 12.4707 17.4839C12.4708 17.4716 12.4552 17.4716 12.4475 17.4716ZM9.58256 12.6383C11.6218 11.4418 13.6222 10.2652 15.6498 9.07668C13.6067 7.88015 11.6102 6.70357 9.58256 5.51507V12.6383Z" fill="#1678F2"/>
</svg>
